<svg xmlns="http://www.w3.org/2000/svg" width="44" height="28" viewBox="0 0 44 28">
  <g id="Groupe_9" data-name="Groupe 9" transform="translate(-1738 -126)">
    <rect id="Rectangle_47" data-name="Rectangle 47" width="44" height="28" rx="5" transform="translate(1738 126)" fill="#707070"/>
    <g id="copy-icon" transform="translate(1751.5 130.978)">
      <path id="Tracé_8" data-name="Tracé 8" d="M13.16,2.05V3.185h1.791v0A2.048,2.048,0,0,1,17,5.232h0V15.994h0a2.048,2.048,0,0,1-2.044,2.046v0H5.888v0A2.048,2.048,0,0,1,3.843,16h0V13.584H2.048v0A2.048,2.048,0,0,1,0,11.537H0V2.05H0A2.048,2.048,0,0,1,2.047,0V0h9.065V0a2.048,2.048,0,0,1,2.046,2.044h0v0ZM11.606,3.185V2.047h0a.5.5,0,0,0-.5-.495v0H2.048v0a.5.5,0,0,0-.495.5h0v9.488h0a.5.5,0,0,0,.5.495v0H3.841V5.235h0A2.048,2.048,0,0,1,5.888,3.188v0h5.718Zm3.838,12.809V5.232h0a.5.5,0,0,0-.5-.495v0H5.887v0a.5.5,0,0,0-.495.5h0V16h0a.5.5,0,0,0,.5.495v0h9.065v0a.5.5,0,0,0,.495-.5h0Z" fill="#bbb" fill-rule="evenodd"/>
    </g>
  </g>
</svg>
