<svg xmlns="http://www.w3.org/2000/svg" width="60" height="60" viewBox="0 0 60 60">
  <path id="iconmonstr-dribbble-3" d="M32.525,32.97a65.442,65.442,0,0,1,3.4,12.432,16.378,16.378,0,0,1-16.07-2.387C23.14,37.87,27.33,34.52,32.525,32.97ZM31.2,29.755c-.357-.8-.728-1.595-1.117-2.388A55.824,55.824,0,0,1,13.5,29.575L13.475,30A16.444,16.444,0,0,0,17.3,40.557a25.747,25.747,0,0,1,13.9-10.8Zm-8.655-14.48a16.566,16.566,0,0,0-8.58,10.812,53.171,53.171,0,0,0,14.477-1.842A74.826,74.826,0,0,0,22.545,15.275Zm17.528,1.657A16.271,16.271,0,0,0,25.948,14a77.267,77.267,0,0,1,5.815,9.062A20.235,20.235,0,0,0,40.072,16.932ZM60,12.5v35A12.5,12.5,0,0,1,47.5,60h-35A12.5,12.5,0,0,1,0,47.5v-35A12.5,12.5,0,0,1,12.5,0h35A12.5,12.5,0,0,1,60,12.5ZM50,30A20,20,0,1,0,30,50,20,20,0,0,0,50,30ZM33.36,26.145c.45.928.87,1.862,1.28,2.8a35.612,35.612,0,0,1,11.835.122,16.46,16.46,0,0,0-3.868-9.725,23.611,23.611,0,0,1-9.247,6.8Zm2.612,6.093a68.533,68.533,0,0,1,3.2,11.495,16.557,16.557,0,0,0,7.135-11.167,33.362,33.362,0,0,0-10.332-.327Z" fill="#bbb"/>
</svg>
