<svg xmlns="http://www.w3.org/2000/svg" width="60" height="60" viewBox="0 0 60 60">
  <path id="iconmonstr-github-3" d="M47.5,0h-35A12.5,12.5,0,0,0,0,12.5v35A12.5,12.5,0,0,0,12.5,60h35A12.5,12.5,0,0,0,60,47.5v-35A12.5,12.5,0,0,0,47.5,0ZM36.335,48.975c-1.013.195-1.335-.428-1.335-.96V42.528a4.765,4.765,0,0,0-1.375-3.7c4.455-.5,9.135-2.188,9.135-9.868A7.736,7.736,0,0,0,40.7,23.59a7.2,7.2,0,0,0-.2-5.292s-1.677-.538-5.495,2.05a18.921,18.921,0,0,0-10.018,0c-3.82-2.588-5.5-2.05-5.5-2.05a7.2,7.2,0,0,0-.193,5.295,7.731,7.731,0,0,0-2.06,5.368c0,7.66,4.667,9.378,9.112,9.885a4.256,4.256,0,0,0-1.27,2.675c-1.142.51-4.035,1.393-5.82-1.665a4.208,4.208,0,0,0-3.067-2.062s-1.95-.025-.138,1.218A5.3,5.3,0,0,1,18.28,41.93S19.438,45.5,25,44.29v3.723c0,.528-.323,1.147-1.32.962a19.993,19.993,0,1,1,12.655,0Z" fill="#bbb"/>
</svg>
